<svg xmlns="http://www.w3.org/2000/svg" xmlns:xlink="http://www.w3.org/1999/xlink" width="64px" height="64px" viewBox="0 0 64 64" version="1.1">
<g id="surface1">
<path style=" stroke:none;fill-rule:nonzero;fill:rgb(46.27451%,29.019608%,73.72549%);fill-opacity:1;" d="M 41.984375 41.855469 C 43.839844 41.664062 45.246094 40.0625 45.183594 38.144531 C 45.121094 36.222656 43.519531 34.6875 41.601562 34.6875 L 41.472656 34.6875 C 39.488281 34.753906 37.953125 36.414062 38.015625 38.398438 C 38.078125 39.359375 38.464844 40.191406 39.039062 40.769531 C 36.863281 45.054688 33.535156 48.191406 28.542969 50.816406 C 25.152344 52.609375 21.632812 53.246094 18.113281 52.800781 C 15.230469 52.414062 12.992188 51.136719 11.585938 49.023438 C 9.535156 45.886719 9.34375 42.496094 11.070312 39.105469 C 12.289062 36.671875 14.207031 34.878906 15.425781 33.984375 C 15.167969 33.152344 14.785156 31.742188 14.59375 30.71875 C 5.3125 37.441406 6.273438 46.527344 9.089844 50.816406 C 11.199219 54.015625 15.488281 56 20.222656 56 C 21.503906 56 22.785156 55.871094 24.0625 55.550781 C 32.257812 53.953125 38.464844 49.089844 41.984375 41.855469 Z M 41.984375 41.855469 "/>
<path style=" stroke:none;fill-rule:nonzero;fill:rgb(46.27451%,29.019608%,73.72549%);fill-opacity:1;" d="M 53.246094 33.921875 C 48.382812 28.222656 41.214844 25.089844 33.023438 25.089844 L 32 25.089844 C 31.425781 23.9375 30.207031 23.167969 28.863281 23.167969 L 28.734375 23.167969 C 26.753906 23.230469 25.214844 24.894531 25.28125 26.878906 C 25.34375 28.800781 26.945312 30.335938 28.863281 30.335938 L 28.992188 30.335938 C 30.398438 30.273438 31.617188 29.375 32.128906 28.160156 L 33.28125 28.160156 C 38.144531 28.160156 42.753906 29.566406 46.910156 32.320312 C 50.113281 34.433594 52.414062 37.183594 53.695312 40.511719 C 54.785156 43.199219 54.71875 45.824219 53.566406 48.0625 C 51.777344 51.457031 48.769531 53.3125 44.800781 53.3125 C 42.238281 53.3125 39.808594 52.542969 38.527344 51.96875 C 37.824219 52.609375 36.542969 53.632812 35.648438 54.273438 C 38.398438 55.550781 41.214844 56.257812 43.902344 56.257812 C 50.046875 56.257812 54.59375 52.863281 56.320312 49.472656 C 58.175781 45.761719 58.046875 39.359375 53.246094 33.921875 Z M 53.246094 33.921875 "/>
<path style=" stroke:none;fill-rule:nonzero;fill:rgb(46.27451%,29.019608%,73.72549%);fill-opacity:1;" d="M 20.734375 42.945312 C 20.800781 44.863281 22.398438 46.398438 24.320312 46.398438 L 24.449219 46.398438 C 26.433594 46.335938 27.96875 44.671875 27.902344 42.6875 C 27.839844 40.769531 26.238281 39.230469 24.320312 39.230469 L 24.191406 39.230469 C 24.0625 39.230469 23.871094 39.230469 23.742188 39.296875 C 21.121094 34.945312 20.03125 30.207031 20.414062 25.089844 C 20.671875 21.246094 21.953125 17.921875 24.191406 15.167969 C 26.046875 12.800781 29.632812 11.648438 32.0625 11.585938 C 38.847656 11.457031 41.726562 19.902344 41.921875 23.296875 C 42.753906 23.488281 44.160156 23.9375 45.121094 24.257812 C 44.351562 13.886719 37.953125 8.511719 31.808594 8.511719 C 26.046875 8.511719 20.734375 12.671875 18.625 18.816406 C 15.679688 27.007812 17.601562 34.878906 21.183594 41.089844 C 20.863281 41.535156 20.671875 42.238281 20.734375 42.945312 Z M 20.734375 42.945312 "/>
</g>
</svg>