<svg xmlns="http://www.w3.org/2000/svg" xmlns:xlink="http://www.w3.org/1999/xlink" width="67px" height="64px" viewBox="0 0 66 64" version="1.1">
<defs>
<clipPath id="clip1">
  <path d="M 5 5 L 61 5 L 61 59 L 5 59 Z M 5 5 "/>
</clipPath>
<clipPath id="clip2">
  <path d="M 5.691406 5.765625 L 10.097656 5.765625 C 24.398438 5.765625 35.988281 17.511719 35.988281 32 C 35.988281 46.488281 24.398438 58.234375 10.097656 58.234375 L 5.691406 58.234375 L 5.691406 46.703125 L 10.097656 46.703125 C 18.113281 46.703125 24.609375 40.121094 24.609375 32 C 24.609375 23.878906 18.113281 17.296875 10.097656 17.296875 L 5.691406 17.296875 Z M 26.316406 5.765625 L 44.523438 5.765625 C 50.644531 5.765625 56.21875 9.355469 58.816406 14.972656 C 61.417969 20.59375 60.574219 27.230469 56.660156 32 C 60.574219 36.769531 61.417969 43.40625 58.816406 49.027344 C 56.21875 54.644531 50.644531 58.234375 44.523438 58.234375 L 26.316406 58.234375 C 30.796875 55.390625 34.46875 51.417969 36.980469 46.703125 L 44.523438 46.703125 C 46.957031 46.703125 48.929688 44.703125 48.929688 42.234375 C 48.929688 39.765625 46.957031 37.765625 44.523438 37.765625 L 40.113281 37.765625 C 40.824219 33.957031 40.824219 30.042969 40.113281 26.234375 L 44.523438 26.234375 C 46.957031 26.234375 48.929688 24.234375 48.929688 21.765625 C 48.929688 19.296875 46.957031 17.296875 44.523438 17.296875 L 36.980469 17.296875 C 34.46875 12.582031 30.796875 8.609375 26.316406 5.765625 Z M 26.316406 5.765625 "/>
</clipPath>
<linearGradient id="linear0" gradientUnits="userSpaceOnUse" x1="7" y1="64" x2="50" y2="107" gradientTransform="matrix(0.568966,0,0,0.576577,5.689655,5.765766)">
<stop offset="0" style="stop-color:rgb(97.647059%,62.745098%,23.529412%);stop-opacity:1;"/>
<stop offset="1" style="stop-color:rgb(96.862745%,59.215686%,30.588235%);stop-opacity:1;"/>
</linearGradient>
<linearGradient id="linear1" gradientUnits="userSpaceOnUse" x1="45" y1="-10" x2="108" y2="53" gradientTransform="matrix(0.568966,0,0,0.576577,5.689655,5.765766)">
<stop offset="0" style="stop-color:rgb(72.156863%,30.588235%,31.764706%);stop-opacity:1;"/>
<stop offset="1" style="stop-color:rgb(96.470588%,55.686275%,28.235294%);stop-opacity:1;"/>
</linearGradient>
<linearGradient id="linear2" gradientUnits="userSpaceOnUse" x1="2" y1="-2" x2="87" y2="84">
<stop offset="0" style="stop-color:rgb(94.901961%,42.745098%,34.509804%);stop-opacity:1;"/>
<stop offset="1" style="stop-color:rgb(97.647059%,62.745098%,23.529412%);stop-opacity:1;"/>
</linearGradient>
</defs>
<g id="surface1">
<g clip-path="url(#clip1)" clip-rule="nonzero">
<g clip-path="url(#clip2)" clip-rule="nonzero">
<path style=" stroke:none;fill-rule:nonzero;fill:url(#linear0);" d="M -67.136719 -53.046875 L -67.136719 119.929688 L 103.550781 119.929688 Z M -67.136719 -53.046875 "/>
<path style=" stroke:none;fill-rule:nonzero;fill:url(#linear1);" d="M -35.277344 -53.046875 L 135.414062 -53.046875 L 135.414062 119.929688 Z M -35.277344 -53.046875 "/>
<path style="fill:none;stroke-width:40;stroke-linecap:butt;stroke-linejoin:miter;stroke:url(#linear2);stroke-miterlimit:4;" d="M -100.000237 -102.003174 L 200.002841 198.003052 " transform="matrix(0.568966,0,0,0.576577,5.689655,5.765766)"/>
</g>
</g>
</g>
</svg>