<svg xmlns="http://www.w3.org/2000/svg" width="180" height="32" viewBox="0 0 123 16" fill="none">
<g clip-path="url(#clip0_4031_33753)">
<path d="M7.74752 10.729C8.09656 11.5307 8.40198 10.6199 8.40198 10.6199L8.88301 9.32954L10.8464 4.05674L10.109 1.51743C10.0665 1.40835 9.85489 1.6265 9.83853 1.64505C9.72296 1.81874 9.6333 2.00835 9.57238 2.20788C9.38913 2.67583 9.24515 3.15577 9.08262 3.62589C8.91464 4.12837 8.74848 4.63085 8.58414 5.13333C8.25327 6.13903 7.92313 7.14472 7.59372 8.15041L7.56754 8.23004L7.33521 8.9314L7.62862 10.2654C7.62862 10.2654 7.74206 10.7225 7.74752 10.729Z" fill="url(#paint0_linear_4031_33753)"/>
<path d="M5.64897 14.2031C5.43082 14.8467 4.79708 15.4466 4.12189 15.451L0.675049 15.4739L5.01742 2.305C5.19412 1.76834 5.73078 1.17168 6.33507 1.17168H9.65211C9.7494 1.17021 9.84468 1.19946 9.92439 1.25528C10.0041 1.31109 10.0642 1.39062 10.0961 1.48255L10.1135 1.52509C10.1115 1.52202 10.1089 1.51942 10.1059 1.51746C10.047 1.48364 9.91608 1.61999 9.8779 1.66471L9.86699 1.67671C9.75165 1.85054 9.66201 2.04011 9.60084 2.23955C9.41868 2.70749 9.27361 3.18634 9.11109 3.65755C8.94456 4.15931 8.7784 4.66143 8.6126 5.16391C8.28537 6.1696 7.95814 7.17639 7.62327 8.18099L7.59709 8.26061L7.36476 8.96198L5.64897 14.2031Z" fill="url(#paint1_linear_4031_33753)"/>
<path d="M16.9141 14.9602C16.5261 15.2789 16.0428 15.459 15.5408 15.4717L12.9175 15.4608C13.0135 14.874 13.0473 12.351 13.2349 10.3058L14.0901 7.95195C14.0988 7.92795 14.1097 7.90177 14.1195 7.87559C14.4631 6.91353 14.8023 5.94711 15.1437 4.98177C15.3161 4.49965 15.4873 4.01753 15.6619 3.53759C15.8244 3.07947 15.9782 2.62243 16.168 2.17304C16.222 2.03223 16.2847 1.8949 16.3556 1.76181C16.3665 1.74327 16.3785 1.72582 16.3905 1.70728C16.3979 1.69496 16.4063 1.68328 16.4156 1.67237C16.423 1.66111 16.4314 1.65052 16.4407 1.64074C16.4581 1.62001 16.6828 1.40295 16.7319 1.51203C16.7319 1.55457 16.7417 1.59711 16.7472 1.63965C16.7472 1.65055 16.7472 1.66146 16.7472 1.67564C16.7472 1.68982 16.7472 1.69964 16.7526 1.71055C16.7581 1.72146 16.7526 1.73782 16.7526 1.75091C16.7536 1.76434 16.7536 1.77783 16.7526 1.79126C16.7526 1.80763 16.7526 1.82072 16.7526 1.8338C16.7526 1.84689 16.7526 1.86544 16.7526 1.88071C16.7526 1.89598 16.7526 1.91234 16.7581 1.92761C16.7635 1.94288 16.7581 1.96143 16.7581 1.97997C16.7598 1.99702 16.7598 2.01419 16.7581 2.03123C16.7581 2.04869 16.7581 2.06941 16.7635 2.08686C16.7625 2.10539 16.7625 2.12397 16.7635 2.14249C16.7635 2.16322 16.7635 2.18285 16.7635 2.20358C16.7635 2.2243 16.7635 2.24612 16.7635 2.26575C16.7635 2.28538 16.7635 2.31047 16.7635 2.3312C16.7635 2.35192 16.7635 2.37592 16.7635 2.39992V2.46973C16.7624 2.48024 16.7624 2.49085 16.7635 2.50136L17.2129 13.0557C17.262 13.6687 17.4038 14.5435 16.9141 14.9602Z" fill="url(#paint2_linear_4031_33753)"/>
<path d="M16.7333 1.50986C16.6864 1.40078 16.4661 1.61348 16.4475 1.63312C16.445 1.63613 16.4428 1.63942 16.441 1.64293C16.4317 1.65271 16.4233 1.6633 16.4159 1.67457C16.4066 1.68548 16.3982 1.69715 16.3908 1.70947C16.3788 1.72801 16.3668 1.74547 16.3559 1.76401C16.2849 1.89709 16.2223 2.03443 16.1683 2.17523C15.9785 2.62463 15.8247 3.08166 15.6622 3.53979C15.4876 4.01973 15.3164 4.50185 15.144 4.98397C14.8026 5.9493 14.4634 6.91573 14.1198 7.87779C14.11 7.90397 14.0991 7.93015 14.0904 7.95414L13.2352 10.308L13.0705 10.7618L12.5251 12.2692C12.3182 12.8517 11.8909 13.3296 11.3351 13.6C10.6981 13.8989 9.98687 13.8116 9.37168 13.48C9.28663 13.4343 9.20432 13.3837 9.12516 13.3284C9.11207 13.3284 9.0968 13.3284 9.07826 13.3131C9.02916 13.2723 8.98288 13.2282 8.93973 13.1811C8.69047 12.9677 8.49155 12.7017 8.35726 12.4023C8.33762 12.3707 8.32453 12.351 8.32235 12.3445C8.29945 12.3161 7.78896 10.8425 7.72461 10.6593C7.73661 10.6865 7.74643 10.7214 7.75951 10.7443C7.7726 10.7672 7.77806 10.7814 7.78787 10.7989C7.8001 10.8218 7.81358 10.844 7.82823 10.8654C7.8435 10.885 7.85659 10.9036 7.87077 10.92C7.87712 10.9277 7.88405 10.935 7.8915 10.9418C7.91063 10.9642 7.93413 10.9826 7.96057 10.9957C7.98701 11.0088 8.01583 11.0165 8.0453 11.0181C8.05761 11.0197 8.07007 11.0197 8.08238 11.0181C8.09342 11.0161 8.1041 11.0125 8.11402 11.0072C8.2809 10.9385 8.39653 10.6429 8.39653 10.6429L8.8252 9.49213L8.85138 9.4256L8.8961 9.30452L10.8508 4.06881L11.5369 2.22977C11.634 1.96135 11.804 1.72529 12.0277 1.54804C12.3509 1.30133 12.7479 1.17103 13.1545 1.17826H16.2174C16.3537 1.17826 16.4813 1.17063 16.573 1.24589C16.6244 1.28654 16.6642 1.33994 16.6886 1.40078L16.7333 1.50986Z" fill="url(#paint3_linear_4031_33753)"/>
<path d="M8.82519 9.48987L8.39652 10.6406C8.39652 10.6406 8.2809 10.9362 8.11401 11.005C8.2689 10.9362 8.37144 10.6625 8.37144 10.6625L8.82519 9.48987Z" fill="url(#paint4_linear_4031_33753)"/>
<path d="M32.9541 9.96983C32.9541 8.47219 32.3214 7.73374 31.3092 7.73374C30.2969 7.73374 29.5792 8.55618 29.5792 9.88584V14.7943C29.5792 14.8314 29.5719 14.8682 29.5577 14.9024C29.5435 14.9367 29.5227 14.9678 29.4965 14.9941C29.4702 15.0203 29.4391 15.0411 29.4048 15.0553C29.3705 15.0695 29.3338 15.0768 29.2967 15.0768H27.6802V9.75931C27.6802 8.2824 26.9843 7.73374 25.9927 7.73374C25.0645 7.73374 24.3053 8.32494 24.3053 9.88584V14.7943C24.3053 14.8314 24.298 14.8682 24.2838 14.9024C24.2696 14.9367 24.2488 14.9678 24.2226 14.9941C24.1963 15.0203 24.1652 15.0411 24.1309 15.0553C24.0966 15.0695 24.0599 15.0768 24.0228 15.0768H22.4281V6.63642C22.4281 6.53681 22.4676 6.44125 22.5379 6.37071C22.6083 6.30017 22.7037 6.2604 22.8033 6.26011H24.289V7.25162C24.854 6.36264 25.6764 6.09104 26.4989 6.09104C27.5122 6.09104 28.3532 6.53389 28.9466 7.54613C29.2075 7.09688 29.5835 6.72526 30.0357 6.46952C30.488 6.21378 31.0002 6.08314 31.5197 6.09104C33.374 6.09104 34.8738 7.18181 34.8738 9.88802V14.802C34.8738 14.8381 34.8667 14.874 34.8528 14.9074C34.8389 14.9408 34.8186 14.9712 34.7929 14.9967C34.7673 15.0222 34.7369 15.0425 34.7034 15.0562C34.6699 15.07 34.634 15.077 34.5979 15.0768H32.9541V9.96983Z" fill="#10052F"/>
<path d="M120.168 9.96986C120.168 8.47223 119.535 7.73378 118.523 7.73378C117.511 7.73378 116.786 8.55622 116.786 9.88588V14.7584C116.786 14.7999 116.778 14.841 116.762 14.8794C116.747 14.9178 116.723 14.9527 116.694 14.982C116.664 15.0114 116.63 15.0347 116.591 15.0506C116.553 15.0665 116.512 15.0747 116.47 15.0747H114.887V9.75935C114.887 8.28244 114.192 7.73378 113.2 7.73378C112.272 7.73378 111.513 8.32498 111.513 9.88588V14.7573C111.513 14.8414 111.479 14.9222 111.42 14.9817C111.36 15.0412 111.279 15.0747 111.195 15.0747H109.635V6.66701C109.635 6.55823 109.679 6.45391 109.756 6.377C109.832 6.30009 109.937 6.25688 110.046 6.25688H111.492V7.24839C112.061 6.36268 112.884 6.0889 113.706 6.0889C114.719 6.0889 115.56 6.53175 116.154 7.54399C116.415 7.09497 116.792 6.72371 117.245 6.46837C117.697 6.21302 118.21 6.0828 118.729 6.09108C120.583 6.09108 122.083 7.18185 122.083 9.88806V14.7671C122.083 14.8492 122.051 14.928 121.993 14.9861C121.934 15.0442 121.856 15.0769 121.773 15.0769H120.168V9.96986Z" fill="#10052F"/>
<path d="M41.0584 13.577C41.8975 13.5947 42.712 13.2929 43.337 12.7328L44.3078 14.1671C43.1679 14.9688 42.2615 15.2219 41.0584 15.2219C38.1482 15.2219 36.4182 13.4505 36.4182 10.6657C36.4182 7.92354 38.2322 6.10959 40.6362 6.10959C42.8516 6.10959 44.6023 7.60722 44.6023 10.1804C44.6023 10.5818 44.5608 11.0671 44.5608 11.0671H38.3162C38.3162 12.7328 39.54 13.577 41.0584 13.577ZM38.422 9.56952H42.8516C42.7251 8.30313 41.7968 7.67048 40.6788 7.67048C39.6458 7.67048 38.759 8.30313 38.422 9.56952Z" fill="#10052F"/>
<path d="M49.522 15.1805C47.3284 15.1805 46.59 14.1464 46.59 11.7631V7.83628H45.0509L45.4719 6.25356H46.59V5.06571C46.5899 4.90117 46.6462 4.74156 46.7493 4.61338C46.8525 4.4852 46.9964 4.39617 47.1572 4.36107L48.5097 4.06329V6.25684H50.7033V7.83628H48.5097V11.8012C48.5097 13.4472 48.9111 13.7003 50.8724 13.553L50.4928 15.1772L49.522 15.1805Z" fill="#10052F"/>
<path d="M82.2255 15.1805C80.0308 15.1805 79.2935 14.1464 79.2935 11.7631V7.83628H77.7533L78.1732 6.25684H79.2913V5.06571C79.291 4.90127 79.347 4.74167 79.45 4.61348C79.553 4.48528 79.6967 4.39621 79.8574 4.36107L81.21 4.06329V6.25684H83.4089V7.83628H81.2121V11.8012C81.2121 13.4472 81.6135 13.7003 83.5747 13.553L83.1908 15.1805H82.2255Z" fill="#10052F"/>
<path d="M54.353 11.257V15.0747H52.4551V6.61247C52.4549 6.56582 52.464 6.51961 52.4818 6.47647C52.4995 6.43334 52.5256 6.39413 52.5585 6.36109C52.5915 6.32806 52.6306 6.30185 52.6737 6.28397C52.7167 6.26608 52.7629 6.25688 52.8096 6.25688H54.353V7.58653C54.6486 6.65828 55.5976 6.10962 56.5891 6.10962C56.7581 6.10618 56.9271 6.1131 57.0952 6.13035C56.9687 6.74227 56.9273 7.22767 56.7789 7.83959H56.6317C54.6279 7.83632 54.353 9.40049 54.353 11.257Z" fill="#10052F"/>
<path d="M87.3749 11.257V15.0747H85.4813V6.61247C85.4813 6.51835 85.5186 6.42807 85.5851 6.36141C85.6515 6.29476 85.7417 6.25717 85.8358 6.25688H87.3804V7.58653C87.6749 6.65828 88.6249 6.10962 89.6164 6.10962C89.7854 6.10618 89.9544 6.1131 90.1226 6.13035C89.9906 6.74554 89.9535 7.22767 89.8008 7.83632H89.6524C87.6487 7.83632 87.3749 9.40049 87.3749 11.257Z" fill="#10052F"/>
<path d="M59.5003 4.63269C58.8677 4.63269 58.3605 4.23237 58.3605 3.55718C58.3605 2.90272 58.8677 2.52313 59.5003 2.52313C60.1548 2.52313 60.6598 2.90272 60.6598 3.57791C60.6598 4.23674 60.1537 4.63269 59.5003 4.63269ZM58.5503 6.25685H60.47V15.0746H58.5503V6.25685Z" fill="#10052F"/>
<path d="M61.9128 10.6658C61.9128 7.79708 63.8762 6.08456 66.5541 6.08456C67.6282 6.09716 68.6758 6.41947 69.5712 7.01281L69.1698 8.70896C69.1698 8.70896 68.0517 7.78072 66.5748 7.78072C65.0139 7.78072 63.7912 8.79295 63.7912 10.6494C63.7912 12.5059 64.9725 13.5814 66.5541 13.5814C67.449 13.5657 68.312 13.2456 69.0007 12.6739L69.8657 14.2141C68.7062 14.9525 67.6296 15.2263 66.5541 15.2263C63.8751 15.222 61.9128 13.492 61.9128 10.6658Z" fill="#10052F"/>
<path d="M74.1275 7.73375C73.557 7.73375 72.9276 7.96608 72.9276 8.59873C72.9276 10.2436 77.3365 9.4419 77.3365 12.5255C77.3365 14.1704 76.0505 15.2044 74.025 15.2044C73.0967 15.2044 72.0212 15.0354 70.7134 14.1922C71.0504 13.7275 71.6831 12.8211 71.6831 12.8211C72.3801 13.2847 73.2658 13.5847 73.9617 13.5847C74.9107 13.5847 75.3797 13.1625 75.3797 12.5724C75.3797 10.7792 71.0766 11.7282 71.0766 8.58564C71.0766 7.02474 72.3419 6.0965 74.1308 6.0965C75.0987 6.09738 76.0422 6.39971 76.8304 6.96148L76.5108 8.59982C75.5826 7.94536 74.8027 7.73375 74.1275 7.73375Z" fill="#10052F"/>
<path d="M95.2633 13.577C96.1025 13.5947 96.917 13.2929 97.542 12.7328L98.5128 14.1671C97.3729 14.9688 96.4665 15.2219 95.2633 15.2219C92.3531 15.2219 90.6232 13.4505 90.6232 10.6657C90.6232 7.92354 92.4371 6.10959 94.8412 6.10959C97.0566 6.10959 98.8073 7.60722 98.8073 10.1804C98.8073 10.5818 98.7658 11.0671 98.7658 11.0671H92.5211C92.5211 12.7328 93.745 13.577 95.2633 13.577ZM92.6269 9.56952H97.0566C96.93 8.30313 96.0018 7.67048 94.8837 7.67048C93.8508 7.67048 92.964 8.30313 92.6269 9.56952Z" fill="#10052F"/>
<path d="M104.134 6.13034C105.09 6.13034 106.146 6.30377 106.991 6.80553C108.068 7.44363 108.268 8.39806 108.268 9.57173V15.0747H106.39V13.7723C106.391 13.7631 106.388 13.7541 106.382 13.7467C106.377 13.7394 106.369 13.7343 106.36 13.7322C106.351 13.7301 106.342 13.7312 106.333 13.7354C106.325 13.7395 106.319 13.7464 106.315 13.7548C105.939 14.598 104.905 15.1805 103.691 15.1805C101.032 15.1805 99.6406 13.2389 99.6406 10.6865C99.6395 8.15591 101.243 6.13034 104.134 6.13034ZM103.901 13.492C105.421 13.492 106.39 12.1427 106.39 9.92732V9.24777C106.39 8.04792 105.17 7.79704 104.218 7.79704C102.472 7.79704 101.581 9.16814 101.581 10.7509C101.58 12.3085 102.255 13.492 103.9 13.492H103.901Z" fill="#10052F"/>
</g>
<defs>
<linearGradient id="paint0_linear_4031_33753" x1="2.42111" y1="3.62812" x2="16.0019" y2="9.30325" gradientUnits="userSpaceOnUse">
<stop offset="0.06" stop-color="#130231"/>
<stop offset="0.08" stop-color="#12123B"/>
<stop offset="0.2" stop-color="#0B5D67"/>
<stop offset="0.31" stop-color="#07998B"/>
<stop offset="0.4" stop-color="#03C4A4"/>
<stop offset="0.47" stop-color="#01DEB4"/>
<stop offset="0.51" stop-color="#00E8BA"/>
<stop offset="0.59" stop-color="#04C6A6"/>
<stop offset="0.75" stop-color="#0E7173"/>
<stop offset="0.9" stop-color="#172445"/>
</linearGradient>
<linearGradient id="paint1_linear_4031_33753" x1="2.01888" y1="7.05204" x2="10.4451" y2="10.4062" gradientUnits="userSpaceOnUse">
<stop offset="0.24" stop-color="#16DEA5"/>
<stop offset="0.39" stop-color="#0CE9C6"/>
<stop offset="0.58" stop-color="#00F6EE"/>
</linearGradient>
<linearGradient id="paint2_linear_4031_33753" x1="24.7894" y1="16.3662" x2="9.50445" y2="4.27823" gradientUnits="userSpaceOnUse">
<stop offset="0.39" stop-color="#00F6EE"/>
<stop offset="0.47" stop-color="#07EFD8"/>
<stop offset="0.67" stop-color="#16DEA5"/>
<stop offset="0.7" stop-color="#16D19E"/>
<stop offset="0.77" stop-color="#15AD8B"/>
<stop offset="0.85" stop-color="#15736D"/>
<stop offset="0.96" stop-color="#132543"/>
<stop offset="1" stop-color="#130231"/>
</linearGradient>
<linearGradient id="paint3_linear_4031_33753" x1="9.53747" y1="6.02239" x2="14.2507" y2="7.8647" gradientUnits="userSpaceOnUse">
<stop offset="0.21" stop-color="#16DEA5"/>
<stop offset="0.37" stop-color="#11E3B5"/>
<stop offset="0.67" stop-color="#05F0DD"/>
<stop offset="0.78" stop-color="#00F6EE"/>
</linearGradient>
<linearGradient id="paint4_linear_4031_33753" x1="141.965" y1="194.043" x2="143.61" y2="194.34" gradientUnits="userSpaceOnUse">
<stop offset="0.24" stop-color="#16DEA5"/>
<stop offset="0.39" stop-color="#0CE9C6"/>
<stop offset="0.58" stop-color="#00F6EE"/>
</linearGradient>
<clipPath id="clip0_4031_33753">
<rect width="122.143" height="15" fill="white" transform="translate(0 0.5)"/>
</clipPath>
</defs>
</svg>