<svg xmlns="http://www.w3.org/2000/svg" viewBox="0 0 64 64">
  <defs>
    <linearGradient id="g" x1="0" y1="0" x2="64" y2="64" gradientUnits="userSpaceOnUse">
      <stop offset="0" stop-color="#6366F1"/>
      <stop offset="0.55" stop-color="#4F46E5"/>
      <stop offset="1" stop-color="#0EA5E9"/>
    </linearGradient>
  </defs>
  <rect width="64" height="64" rx="14" fill="url(#g)"/>
  <path d="M44.5 21.5c-2.6-3-6.6-4.7-11.5-4.7-7.4 0-12.4 3.7-12.4 9.3 0 5.1 3.6 7.7 11.1 9 6 1 7.7 2.1 7.7 4.5 0 2.5-2.5 4-7 4-4.6 0-7.7-1.6-10-4.5l-3.7 3.9c2.9 3.7 7.5 5.7 13.5 5.7 8 0 13.1-3.7 13.1-9.5 0-5.4-3.7-8.1-11.7-9.4-5.6-.9-7.1-1.9-7.1-4 0-2.3 2.4-3.7 6.5-3.7 3.7 0 6.6 1.2 8.7 3.6z" fill="#fff"/>
</svg>
